HIERARCHY
ROOT Hips
{
  OFFSET 5.84602e-005 68.8428 3.50346
  CHANNELS 6 Xposition Yposition Zposition Zrotation Xrotation Yrotation
  JOINT Spine
  {
    OFFSET 0 8.597 -4.6522
    CHANNELS 3 Zrotation Xrotation Yrotation
    JOINT Spine1
    {
      OFFSET 0 7.8454 0.4098
      CHANNELS 3 Zrotation Xrotation Yrotation
      JOINT Spine2
      {
        OFFSET 0 9.7078 -2.1609
        CHANNELS 3 Zrotation Xrotation Yrotation
        JOINT Neck
        {
          OFFSET 0 21.8761 -0.4549
          CHANNELS 3 Zrotation Xrotation Yrotation
          JOINT Head
          {
            OFFSET 0 12.3537 3.3602
            CHANNELS 3 Zrotation Xrotation Yrotation
            End Site
            {
              OFFSET 0.0001 18.9506 0.5657
            }
          }
        }
        JOINT LeftShoulder
        {
          OFFSET 2.2086 21.1115 7.2329
          CHANNELS 3 Zrotation Xrotation Yrotation
          JOINT LeftArm
          {
            OFFSET 13.1193 3.0282 -4.8998
            CHANNELS 3 Zrotation Xrotation Yrotation
            JOINT LeftForeArm
            {
              OFFSET 27.4081 -0.0973053 -0.2375
              CHANNELS 3 Zrotation Xrotation Yrotation
              JOINT LeftHand
              {
                OFFSET 22.8641 0.0662994 -0.1369
                CHANNELS 3 Zrotation Xrotation Yrotation
                JOINT LeftHandIndex1
                {
                  OFFSET 8.8614 0.775009 2.4612
                  CHANNELS 3 Zrotation Xrotation Yrotation
                  JOINT LeftHandIndex2
                  {
                    OFFSET 3.3146 -0.808304 0.5841
                    CHANNELS 3 Zrotation Xrotation Yrotation
                    JOINT LeftHandIndex3
                    {
                      OFFSET 2.2628 -0.552002 0.3989
                      CHANNELS 3 Zrotation Xrotation Yrotation
                      End Site
                      {
                        OFFSET 1.6102 -0.4807 0.2612
                      }
                    }
                  }
                }
                JOINT LeftHandMiddle1
                {
                  OFFSET 8.9937 0.895004 0.2143
                  CHANNELS 3 Zrotation Xrotation Yrotation
                  JOINT LeftHandMiddle2
                  {
                    OFFSET 4.0984 0.0113983 -0.0242
                    CHANNELS 3 Zrotation Xrotation Yrotation
                    JOINT LeftHandMiddle3
                    {
                      OFFSET 2.2716 0.00689697 -0.0138001
                      CHANNELS 3 Zrotation Xrotation Yrotation
                      End Site
                      {
                        OFFSET 2.0404 -0.1441 0.0027
                      }
                    }
                  }
                }
                JOINT LeftHandRing1
                {
                  OFFSET 8.5234 0.597198 -2.0164
                  CHANNELS 3 Zrotation Xrotation Yrotation
                  JOINT LeftHandRing2
                  {
                    OFFSET 3.7188 -0.188293 -0.2328
                    CHANNELS 3 Zrotation Xrotation Yrotation
                    JOINT LeftHandRing3
                    {
                      OFFSET 2.1191 -0.106598 -0.1332
                      CHANNELS 3 Zrotation Xrotation Yrotation
                      End Site
                      {
                        OFFSET 1.8737 -0.2304 -0.0886
                      }
                    }
                  }
                }
                JOINT LeftHandPinky1
                {
                  OFFSET 7.9094 -0.601089 -3.4825
                  CHANNELS 3 Zrotation Xrotation Yrotation
                  JOINT LeftHandPinky2
                  {
                    OFFSET 2.2874 -0.477005 -0.6314
                    CHANNELS 3 Zrotation Xrotation Yrotation
                    JOINT LeftHandPinky3
                    {
                      OFFSET 1.6774 -0.349396 -0.4633
                      CHANNELS 3 Zrotation Xrotation Yrotation
                      End Site
                      {
                        OFFSET 1.4888 -0.4091 -0.3416
                      }
                    }
                  }
                }
                JOINT LeftHandThumb1
                {
                  OFFSET 1.833 -1.3875 1.3896
                  CHANNELS 3 Zrotation Xrotation Yrotation
                  JOINT LeftHandThumb2
                  {
                    OFFSET 3.4129 -1.121 2.5732
                    CHANNELS 3 Zrotation Xrotation Yrotation
                    JOINT LeftHandThumb3
                    {
                      OFFSET 2.2474 -0.804199 1.6192
                      CHANNELS 3 Zrotation Xrotation Yrotation
                      End Site
                      {
                        OFFSET 1.6527 -0.5689 1.1317
                      }
                    }
                  }
                }
              }
            }
          }
        }
        JOINT RightShoulder
        {
          OFFSET -2.2086 21.1115 7.2329
          CHANNELS 3 Zrotation Xrotation Yrotation
          JOINT RightArm
          {
            OFFSET -13.1216 3.0287 -4.9007
            CHANNELS 3 Zrotation Xrotation Yrotation
            JOINT RightForeArm
            {
              OFFSET -27.4081 -0.0973053 -0.2375
              CHANNELS 3 Zrotation Xrotation Yrotation
              JOINT RightHand
              {
                OFFSET -22.8641 0.0664063 -0.1369
                CHANNELS 3 Zrotation Xrotation Yrotation
                JOINT RightHandIndex1
                {
                  OFFSET -8.8614 0.774994 2.4612
                  CHANNELS 3 Zrotation Xrotation Yrotation
                  JOINT RightHandIndex2
                  {
                    OFFSET -3.3146 -0.808304 0.5841
                    CHANNELS 3 Zrotation Xrotation Yrotation
                    JOINT RightHandIndex3
                    {
                      OFFSET -2.2628 -0.552002 0.3989
                      CHANNELS 3 Zrotation Xrotation Yrotation
                      End Site
                      {
                        OFFSET -1.6102 -0.4807 0.2612
                      }
                    }
                  }
                }
                JOINT RightHandMiddle1
                {
                  OFFSET -8.9937 0.894989 0.2143
                  CHANNELS 3 Zrotation Xrotation Yrotation
                  JOINT RightHandMiddle2
                  {
                    OFFSET -4.0984 0.0113983 -0.0242
                    CHANNELS 3 Zrotation Xrotation Yrotation
                    JOINT RightHandMiddle3
                    {
                      OFFSET -2.2716 0.00691223 -0.0138001
                      CHANNELS 3 Zrotation Xrotation Yrotation
                      End Site
                      {
                        OFFSET -2.0404 -0.1441 0.0027
                      }
                    }
                  }
                }
                JOINT RightHandRing1
                {
                  OFFSET -8.5234 0.597198 -2.0164
                  CHANNELS 3 Zrotation Xrotation Yrotation
                  JOINT RightHandRing2
                  {
                    OFFSET -3.7188 -0.188309 -0.2328
                    CHANNELS 3 Zrotation Xrotation Yrotation
                    JOINT RightHandRing3
                    {
                      OFFSET -2.1191 -0.106598 -0.1332
                      CHANNELS 3 Zrotation Xrotation Yrotation
                      End Site
                      {
                        OFFSET -1.8737 -0.2304 -0.0886
                      }
                    }
                  }
                }
                JOINT RightHandPinky1
                {
                  OFFSET -7.9094 -0.601105 -3.4825
                  CHANNELS 3 Zrotation Xrotation Yrotation
                  JOINT RightHandPinky2
                  {
                    OFFSET -2.2874 -0.477005 -0.6314
                    CHANNELS 3 Zrotation Xrotation Yrotation
                    JOINT RightHandPinky3
                    {
                      OFFSET -1.6774 -0.349396 -0.4633
                      CHANNELS 3 Zrotation Xrotation Yrotation
                      End Site
                      {
                        OFFSET -1.4888 -0.4091 -0.3416
                      }
                    }
                  }
                }
                JOINT RightHandThumb1
                {
                  OFFSET -1.833 -1.38751 1.3896
                  CHANNELS 3 Zrotation Xrotation Yrotation
                  JOINT RightHandThumb2
                  {
                    OFFSET -3.41299 -1.12099 2.5732
                    CHANNELS 3 Zrotation Xrotation Yrotation
                    JOINT RightHandThumb3
                    {
                      OFFSET -2.24741 -0.804108 1.6192
                      CHANNELS 3 Zrotation Xrotation Yrotation
                      End Site
                      {
                        OFFSET -1.6527 -0.5689 1.1317
                      }
                    }
                  }
                }
              }
            }
          }
        }
      }
    }
  }
  JOINT RightUpLeg
  {
    OFFSET -9.1966 3.8861 -0.7581
    CHANNELS 3 Zrotation Xrotation Yrotation
    JOINT RightLeg
    {
      OFFSET -0.7359 -41.0265 0
      CHANNELS 3 Zrotation Xrotation Yrotation
      JOINT RightFoot
      {
        OFFSET 0 -40.2855 0
        CHANNELS 3 Zrotation Xrotation Yrotation
        JOINT RightToeBase
        {
          OFFSET 0 -5.6122 11.7359
          CHANNELS 3 Zrotation Xrotation Yrotation
          End Site
          {
            OFFSET 0 0 7.8731
          }
        }
      }
    }
  }
  JOINT LeftUpLeg
  {
    OFFSET 9.1965 3.8864 -0.7581
    CHANNELS 3 Zrotation Xrotation Yrotation
    JOINT LeftLeg
    {
      OFFSET 0.7359 -41.0268 0
      CHANNELS 3 Zrotation Xrotation Yrotation
      JOINT LeftFoot
      {
        OFFSET 0 -40.2855 0
        CHANNELS 3 Zrotation Xrotation Yrotation
        JOINT LeftToeBase
        {
          OFFSET 0 -5.6122 11.7359
          CHANNELS 3 Zrotation Xrotation Yrotation
          End Site
          {
            OFFSET 0 0 7.8731
          }
        }
      }
    }
  }
}
MOTION
Frames:	4
Frame Time:	0.0333333
1.42015 67.5912 -18.01 0 10.9226 -0 -0.212223 3.1938 -0.387291 -0.403725 6.3889 -0.764498 -0.403724 6.38889 -0.764497 6.30778e-006 12.0906 1.50575e-006 4.10346e-007 8.46102 -5.85135e-007 -9.63397 5.11587 -17.8142 -57.0867 -4.66913 -12.2448 1.92732 6.47024 -43.286 12.5751 -5.11852 2.5736 2.89017e-007 -6.40215e-007 -4.83759e-007 -1.59028e-015 3.18055e-015 6.36111e-015 1.44509e-007 -3.20108e-007 -2.41879e-007 2.89017e-007 -6.40215e-007 -4.83759e-007 -0.0145836 -8.90562e-005 1.59118e-006 -1.11628e-006 -7.07382e-007 -4.22696e-007 2.89017e-007 -6.40215e-007 -4.83759e-007 -0.0187779 -0.00117478 5.60425e-005 -1.11591e-006 -7.07269e-007 -4.22716e-007 2.89017e-007 -6.40215e-007 -4.83759e-007 -0.0122963 -0.00325442 0.000672418 1.44502e-007 -3.20082e-007 -2.41918e-007 2.89017e-007 -6.40215e-007 -4.83759e-007 -1.59028e-015 3.18055e-015 6.36111e-015 1.44509e-007 -3.20108e-007 -2.41879e-007 9.36916 5.04787 17.5812 57.0233 -4.67064 12.2447 -1.93036 6.469 43.2823 -12.5788 -5.11807 -2.57722 1.36605e-007 3.31666e-007 -2.30484e-007 -1.76556e-031 1.59028e-015 6.36111e-015 1.36605e-007 3.31666e-007 -2.30484e-007 1.36605e-007 3.31666e-007 -2.30484e-007 0.0150249 -9.06092e-005 4.36862e-006 1.36608e-007 3.31636e-007 -2.30527e-007 1.36605e-007 3.31666e-007 -2.30484e-007 0.0189971 -0.00119332 -5.8144e-005 1.36606e-007 3.31628e-007 -2.3054e-007 1.36605e-007 3.31666e-007 -2.30484e-007 0.0122813 -0.00325202 -0.000678646 1.36599e-007 3.31642e-007 -2.30523e-007 1.36605e-007 3.31666e-007 -2.30484e-007 -1.76556e-031 1.59028e-015 6.36111e-015 1.36605e-007 3.31666e-007 -2.30484e-007 -2.62557 -13.0538 -3.50298 -0.00974158 32.5929 0.408381 8.97904 -15.9464 -12.9109 -1.25081e-006 -2.13861e-007 -1.64455e-007 6.51187 -12.9424 8.14595 -0.471427 32.3633 -0.114209 -11.2814 -15.218 7.21494 4.17456e-007 -7.00506e-008 5.21728e-008 
1.42017 67.6116 -17.7205 0 10.3457 -0 -0.213167 3.40838 -0.387082 -0.404291 6.8183 -0.763464 -0.404291 6.8183 -0.763464 -5.57882e-006 12.1508 5.65216e-006 -2.04175e-007 8.50274 -1.87857e-007 -9.63944 4.76385 -18.0315 -56.9758 -4.70243 -12.2471 1.92732 6.47023 -43.286 12.5751 -5.11852 2.57359 1.44802e-007 -3.19941e-007 -2.41963e-007 1.59028e-015 3.18055e-015 3.18055e-015 1.44802e-007 -3.19941e-007 -2.41963e-007 1.44802e-007 -3.19941e-007 -2.41963e-007 -0.0146005 -8.77305e-005 -4.60822e-006 1.44805e-007 -3.1991e-007 -2.42004e-007 1.44802e-007 -3.19941e-007 -2.41963e-007 -0.018801 -0.00118162 6.0107e-005 1.44803e-007 -3.19901e-007 -2.42017e-007 1.44802e-007 -3.19941e-007 -2.41963e-007 -0.0122618 -0.00324627 0.000678135 1.44796e-007 -3.19915e-007 -2.42002e-007 1.44802e-007 -3.19941e-007 -2.41963e-007 1.59028e-015 3.18055e-015 3.18055e-015 1.44802e-007 -3.19941e-007 -2.41963e-007 9.38792 4.69884 17.81 56.9156 -4.70395 12.2468 -1.93036 6.46901 43.2824 -12.5788 -5.11807 -2.57722 -1.36902e-007 -3.31485e-007 2.30614e-007 1.36902e-007 3.31485e-007 -2.30614e-007 -2.73804e-007 -6.62969e-007 4.61229e-007 -1.36902e-007 -3.31485e-007 2.30614e-007 0.0149966 -8.92474e-005 8.58993e-007 -2.73809e-007 -6.62909e-007 4.61316e-007 -1.36902e-007 -3.31485e-007 2.30614e-007 0.0189648 -0.00118995 -6.35167e-005 -2.73806e-007 -6.62893e-007 4.61341e-007 -1.36902e-007 -3.31485e-007 2.30614e-007 0.0123033 -0.0032587 -0.000680659 -2.73792e-007 -6.6292e-007 4.61308e-007 -1.36902e-007 -3.31485e-007 2.30614e-007 1.36902e-007 3.31485e-007 -2.30614e-007 -2.73804e-007 -6.62969e-007 4.61229e-007 -2.65147 -12.1113 -3.48391 0.0881691 32.2238 0.370547 8.97432 -15.9436 -12.9118 4.16916e-007 7.13868e-008 5.48092e-008 6.51435 -12.0009 8.10548 -0.558102 31.9952 -0.0832591 -11.2772 -15.2154 7.21577 -1.46083e-006 1.37547e-007 1.51332e-006 
1.42019 67.6328 -17.4312 0 9.76888 -0 -0.214091 3.62302 -0.386836 -0.404829 7.24741 -0.76237 -0.404828 7.24739 -0.762368 -2.12919e-006 12.21 -1.01154e-006 3.8773e-007 8.54445 2.16156e-007 -9.64626 4.41189 -18.2488 -56.8649 -4.73573 -12.2493 1.9273 6.47023 -43.286 12.5751 -5.11853 2.57361 1.45095e-007 -3.19772e-007 -2.42049e-007 5.80379e-007 -1.27909e-006 -9.68194e-007 2.9019e-007 -6.39543e-007 -4.84097e-007 1.45095e-007 -3.19772e-007 -2.42049e-007 -0.0146404 -8.86546e-005 -2.10505e-007 2.90194e-007 -6.39482e-007 -4.84179e-007 1.45095e-007 -3.19772e-007 -2.42049e-007 -0.018714 -0.00117169 6.12848e-005 2.9019e-007 -6.39464e-007 -4.84204e-007 1.45095e-007 -3.19772e-007 -2.42049e-007 -0.0122321 -0.0032363 0.000675502 2.90176e-007 -6.39493e-007 -4.84174e-007 1.45095e-007 -3.19772e-007 -2.42049e-007 5.80379e-007 -1.27909e-006 -9.68194e-007 2.9019e-007 -6.39543e-007 -4.84097e-007 9.40805 4.34994 18.0387 56.8078 -4.73728 12.2489 -1.93035 6.469 43.2823 -12.5788 -5.11808 -2.57723 -2.17285e-006 1.14663e-006 1.28086e-006 -5.48791e-007 -1.3252e-006 9.22991e-007 2.03565e-006 -1.47793e-006 -1.05011e-006 -2.17285e-006 1.14663e-006 1.28086e-006 0.014977 -9.30203e-005 -3.23698e-006 -1.60791e-007 -1.84633e-006 -2.65016e-006 -2.17285e-006 1.14663e-006 1.28086e-006 0.0189802 -0.00118694 -5.27154e-005 -1.60778e-007 -1.84643e-006 -2.6501e-006 -2.17285e-006 1.14663e-006 1.28086e-006 0.0122881 -0.00325384 -0.000679537 2.0374e-006 -1.4785e-006 -1.05011e-006 -2.17285e-006 1.14663e-006 1.28086e-006 -5.48791e-007 -1.3252e-006 9.22991e-007 2.03565e-006 -1.47793e-006 -1.05011e-006 -2.67714 -11.1689 -3.46443 0.184722 31.8546 0.333846 8.96988 -15.9407 -12.9126 1.97373e-007 -1.42224e-008 6.58428e-007 6.51691 -11.0596 8.06508 -0.643323 31.6265 -0.0533837 -11.2733 -15.2125 7.21658 -2.42577e-007 2.1721e-007 -2.8289e-006 
1.42022 67.6548 -17.1422 0 9.19215 -0 -0.214994 3.83733 -0.386556 -0.405337 7.67605 -0.761212 -0.405337 7.67605 -0.761213 1.516e-005 12.2693 -1.49808e-005 1.56625e-007 8.58618 -3.10667e-007 -9.6544 4.06 -18.466 -56.754 -4.76904 -12.2515 1.92729 6.47023 -43.286 12.5751 -5.11852 2.57359 1.59028e-014 0 -0 1.45387e-007 -3.19601e-007 -2.42134e-007 1.45387e-007 -3.19601e-007 -2.42134e-007 1.59028e-014 0 -0 -0.0145857 -8.51496e-005 -4.03904e-006 1.45389e-007 -3.1957e-007 -2.42175e-007 1.59028e-014 0 -0 -0.0187073 -0.00117088 6.38675e-005 1.45388e-007 -3.19561e-007 -2.42188e-007 1.59028e-014 0 -0 -0.0122325 -0.00323781 0.000666252 1.45381e-007 -3.19575e-007 -2.42173e-007 1.59028e-014 0 -0 1.45387e-007 -3.19601e-007 -2.42134e-007 1.45387e-007 -3.19601e-007 -2.42134e-007 9.42958 4.00116 18.2674 56.7001 -4.77062 12.2509 -1.93039 6.469 43.2823 -12.5788 -5.11806 -2.57725 -1.93345e-006 2.75102e-007 -2.06486e-006 -3.18055e-015 -3.18055e-015 -6.36111e-015 2.20843e-006 3.87125e-007 1.60309e-006 -1.93345e-006 2.75102e-007 -2.06486e-006 0.0149985 -9.02291e-005 5.64821e-008 1.37496e-007 3.31083e-007 -2.30926e-007 -1.93345e-006 2.75102e-007 -2.06486e-006 0.0189878 -0.00119174 -6.04861e-005 1.37494e-007 3.31075e-007 -2.30939e-007 -1.93345e-006 2.75102e-007 -2.06486e-006 0.0122283 -0.00323627 -0.000674589 2.21012e-006 3.86873e-007 1.6029e-006 -1.93345e-006 2.75102e-007 -2.06486e-006 -3.18055e-015 -3.18055e-015 -6.36111e-015 2.20843e-006 3.87125e-007 1.60309e-006 -2.70255 -10.2271 -3.44454 0.27985 31.4853 0.298283 8.96574 -15.9377 -12.9134 1.97723e-007 1.43184e-007 1.72229e-006 6.51959 -10.1188 8.02475 -0.727063 31.2581 -0.0245917 -11.2698 -15.2098 7.21732 4.17376e-007 -7.05936e-008 5.20553e-008 
